<svg width="122" height="20" viewBox="0 0 122 20" fill="none" xmlns="http://www.w3.org/2000/svg">
<path d="M121.085 5.53711H118.485V19.6766H121.085V5.53711Z" fill="#000D3D"/>
<path d="M91.5895 19.6635V11.7205C91.5895 9.46961 89.9078 7.762 87.6698 7.762C85.7682 7.762 83.8277 9.22382 83.8277 12.0051V19.6765H81.2275V0.595212L83.8277 0.582275C83.8277 0.582275 83.8148 6.71415 83.8277 6.70121C84.177 6.40367 85.5224 5.21352 88.2002 5.21352C91.4602 5.21352 94.2027 7.93017 94.2027 11.1513V19.6635H91.5895Z" fill="#000D3D"/>
<path d="M121.085 0.595215H118.485V3.19544H121.085V0.595215Z" fill="#000D3D"/>
<path d="M99.443 17.0503H96.8298V19.6635H99.443V17.0503Z" fill="#000D3D"/>
<path d="M19.3015 9.09424C19.4826 9.35296 19.5732 9.66344 19.5732 9.98685C19.5732 10.4138 19.405 10.8148 19.1075 11.1123C18.81 11.4099 18.396 11.578 17.982 11.578C17.6715 11.578 17.3611 11.4875 17.0894 11.3064C16.8307 11.1253 16.6237 10.8795 16.5073 10.5949C16.3908 10.2973 16.352 9.98685 16.4167 9.67638C16.4814 9.3659 16.6366 9.0813 16.8566 8.86138C17.0765 8.64146 17.3611 8.48622 17.6716 8.42154C17.982 8.35686 18.3054 8.39567 18.59 8.5121C18.8746 8.61559 19.1204 8.82257 19.3015 9.09424Z" fill="#000D3D"/>
<path d="M19.3015 17.166C19.4826 17.4247 19.5732 17.7352 19.5732 18.0586C19.5732 18.4855 19.405 18.8866 19.1075 19.1841C18.81 19.4816 18.396 19.6498 17.982 19.6498C17.6715 19.6498 17.3611 19.5593 17.0894 19.3781C16.8307 19.197 16.6237 18.9512 16.5073 18.6666C16.3908 18.3691 16.352 18.0586 16.4167 17.7482C16.4814 17.4377 16.6366 17.1531 16.8566 16.9332C17.0765 16.7132 17.3611 16.558 17.6716 16.4933C17.982 16.4286 18.3054 16.4674 18.59 16.5839C18.8746 16.7003 19.1204 16.9073 19.3015 17.166Z" fill="#000D3D"/>
<path d="M19.5723 0.0773926H15.7432V3.90658H19.5723V0.0773926Z" fill="#000D3D"/>
<path d="M11.3335 17.166C11.5146 17.4247 11.6052 17.7352 11.6052 18.0586C11.6052 18.4855 11.437 18.8866 11.1395 19.1841C10.8419 19.4816 10.428 19.6498 10.014 19.6498C9.70353 19.6498 9.39306 19.5593 9.12139 19.3781C8.86267 19.197 8.65568 18.9512 8.53926 18.6666C8.42283 18.3691 8.38402 18.0586 8.4487 17.7482C8.51338 17.4377 8.66862 17.1531 8.88854 16.9332C9.10846 16.7132 9.39306 16.558 9.70353 16.4933C10.014 16.4286 10.3374 16.4674 10.622 16.5839C10.9196 16.7003 11.1653 16.9073 11.3335 17.166Z" fill="#000D3D"/>
<path d="M11.9278 8.05884H8.09863V11.888H11.9278V8.05884Z" fill="#000D3D"/>
<path d="M12.0315 0.0773926H7.98236V4.1265H12.0315V0.0773926Z" fill="#000D3D"/>
<path d="M4.27061 0.0773926H0.0145264V4.33348H4.27061V0.0773926Z" fill="#000D3D"/>
<path d="M3.82918 15.8206H0V19.6497H3.82918V15.8206Z" fill="#000D3D"/>
<path d="M4.0491 7.95605H0V12.0052H4.0491V7.95605Z" fill="#000D3D"/>
<path d="M35.6658 2.393C36.8042 2.40593 37.2699 3.2468 37.2699 3.2468L38.8999 1.60387C37.9426 0.568959 36.7784 -0.000244141 35.5882 -0.000244141C34.4239 -0.000244141 33.4666 0.374913 32.7422 1.09935C32.0048 1.83673 31.6426 2.78109 31.6426 3.9195V5.53655H29.4175V7.77455H31.6297V19.6761H34.2299V7.77455H36.0022H38.8999V5.53655H34.9673H34.2428V3.9195C34.2428 2.98807 34.7473 2.45768 35.6658 2.393Z" fill="#000D3D"/>
<path d="M73.6345 17.4261C70.8273 17.4261 68.7834 15.3951 68.7834 12.6138C68.7834 9.87123 70.8791 7.78846 73.6733 7.78846C75.2128 7.78846 76.4288 8.68108 76.9462 9.13385L78.7185 7.36156C78.214 6.86997 76.3124 5.21411 73.544 5.21411C69.3784 5.21411 66.1314 8.46116 66.1314 12.6008C66.1314 16.7275 69.3914 19.9616 73.5569 19.9616C76.2089 19.9616 78.007 18.5128 78.7185 17.8013L76.9851 16.0937C76.3512 16.6887 75.2257 17.4261 73.6345 17.4261Z" fill="#000D3D"/>
<path d="M61.6943 17.5803C60.8276 17.5803 60.1678 16.9981 60.1678 15.3034V7.77444H64.8249V5.53644H60.1678V2.65161H57.5676V15.3034C57.5676 18.4987 59.0423 19.9476 61.6555 19.9476C62.6257 19.9476 63.8288 19.5595 64.8767 18.6928L63.2337 17.0499C62.8327 17.3991 62.2764 17.5803 61.6943 17.5803Z" fill="#000D3D"/>
<path d="M47.6195 17.3741C45.0969 17.3741 43.2728 15.5242 42.9106 13.6096H53.3762H54.8897C54.9285 13.2862 54.9544 12.9499 54.9544 12.6135C54.9544 8.53853 51.6427 5.22681 47.5677 5.22681C43.4928 5.22681 40.181 8.53853 40.181 12.6135C40.181 16.6885 43.4928 20.0002 47.5677 20.0002C50.0127 20.0002 52.0437 19.1205 53.4279 17.7622L51.8109 15.9382C50.6854 16.9084 49.2753 17.3741 47.6195 17.3741ZM47.6195 7.77528C49.9739 7.77528 51.6944 9.40528 52.186 11.3716H42.9494C43.4798 9.31472 45.2392 7.77528 47.6195 7.77528Z" fill="#000D3D"/>
<path d="M112.676 5.53752V7.06402C112.676 7.06402 110.969 5.21411 107.98 5.21411C103.918 5.21411 100.607 8.48703 100.607 12.5103C100.607 16.6887 103.789 19.9616 107.864 19.9616C111.253 19.9616 112.676 18.0988 112.676 18.0988V19.6512H115.276V5.53752H112.676ZM108.213 17.4261C108.136 17.4261 108.045 17.439 107.954 17.439C106.622 17.439 105.419 16.8957 104.539 16.016C103.66 15.1364 103.116 13.9333 103.116 12.5879C103.116 9.91004 105.29 7.74965 107.98 7.74965C110.671 7.74965 112.844 9.91004 112.844 12.5879C112.844 15.1881 110.788 17.2967 108.213 17.4261Z" fill="#000D3D"/>
</svg>
