<svg width="263" height="84" viewBox="0 0 263 84" fill="none" xmlns="http://www.w3.org/2000/svg">
<path fill-rule="evenodd" clip-rule="evenodd" d="M84.4519 38.2728C84.6275 39.754 84.7251 41.2644 84.7251 42.7992C84.7251 63.619 67.8269 80.5018 46.9774 80.5018C31.7963 80.5018 18.7129 71.5512 12.7175 58.6442L18.7568 55.6087C23.635 66.3134 34.4354 73.7535 46.9774 73.7535C64.0902 73.7535 77.9688 59.8965 77.9688 42.7992C77.9688 42.4825 77.9639 42.1658 77.9541 41.8491L84.4519 38.2728ZM46.9774 5.09668C62.8755 5.09668 76.4809 14.9145 82.0421 28.8155L75.5833 30.8716C70.91 19.6992 59.8608 11.8449 46.9774 11.8449C29.8645 11.8449 15.986 25.702 15.986 42.7992C15.986 43.0087 15.9908 43.2231 15.9957 43.4326L9.67353 48.5974C9.38084 46.7069 9.22961 44.7726 9.22961 42.7992C9.23449 21.9746 26.1327 5.09668 46.9774 5.09668Z" fill="#010E35"/>
<path fill-rule="evenodd" clip-rule="evenodd" d="M4.927 57.874L41.8454 27.7139L40.3137 40.2554L61.8608 28.0598L60.7681 39.9679L89.0326 30.9784L50.6994 52.0661L53.563 40.0654L31.4158 53.0308L32.8793 43.8269L4.927 57.874Z" fill="#010E35"/>
<path fill-rule="evenodd" clip-rule="evenodd" d="M234.779 43.2233H248.17C249.36 43.2233 250.2 42.9651 250.687 42.4535C251.175 41.9419 251.424 41.1623 251.424 40.1147V38.6482C251.424 37.6006 251.18 36.821 250.687 36.3094C250.2 35.7978 249.36 35.5396 248.17 35.5396H235.233C234.931 35.5396 234.779 35.6809 234.779 35.9586V43.2233ZM249.258 30.7549C251.936 30.7549 253.863 31.3591 255.029 32.5723C256.195 33.7806 256.775 35.5737 256.775 37.9514V39.9442C256.775 41.9468 256.366 43.5303 255.551 44.6948C254.736 45.8593 253.405 46.6048 251.565 46.9312L257.546 54.3372C257.663 54.4542 257.697 54.6296 257.653 54.8586C257.605 55.0925 257.419 55.2094 257.092 55.2094H252.58C252.278 55.2094 252.068 55.1753 251.951 55.1071C251.834 55.0389 251.717 54.9219 251.6 54.7563L246.077 47.4915H234.784V54.4396C234.784 54.9512 234.526 55.2094 234.014 55.2094H230.238C229.701 55.2094 229.433 54.9512 229.433 54.4396V31.8024C229.433 31.1057 229.784 30.7549 230.482 30.7549H249.258ZM224.603 30.7549C225.14 30.7549 225.408 31.0131 225.408 31.5247V34.8379C225.408 35.3495 225.14 35.6078 224.603 35.6078H209.325C208.417 35.6078 207.666 35.6857 207.071 35.8368C206.476 35.9878 205.998 36.2461 205.637 36.6066C205.276 36.9672 205.027 37.4544 204.886 38.0732C204.744 38.692 204.676 39.4521 204.676 40.3584V40.7092H224.433C224.945 40.7092 225.203 40.9674 225.203 41.479V44.2368C225.203 44.7484 224.945 45.0066 224.433 45.0066H204.676V45.6011C204.676 46.5073 204.744 47.2723 204.886 47.8862C205.027 48.505 205.276 48.9922 205.637 49.3528C205.998 49.7134 206.476 49.9716 207.071 50.1226C207.666 50.2737 208.417 50.3516 209.325 50.3516H224.603C225.14 50.3516 225.408 50.6099 225.408 51.1215V54.4396C225.408 54.9512 225.14 55.2094 224.603 55.2094H209.218C207.447 55.2094 205.944 55.0486 204.705 54.7222C203.471 54.3957 202.461 53.8646 201.681 53.1338C200.9 52.398 200.329 51.4479 199.968 50.2688C199.607 49.0946 199.427 47.6669 199.427 45.9908V39.9734C199.427 38.2973 199.607 36.8795 199.968 35.715C200.329 34.5505 200.9 33.6004 201.681 32.8695C202.461 32.1338 203.471 31.6027 204.705 31.2616C205.939 30.9254 207.442 30.7549 209.218 30.7549H224.603ZM196.495 30.7549C197.032 30.7549 197.3 31.0131 197.3 31.5247V34.9451C197.3 35.4811 197.032 35.7491 196.495 35.7491H185.514V54.4347C185.514 54.9463 185.256 55.2045 184.743 55.2045H180.934C180.421 55.2045 180.163 54.9463 180.163 54.4347V35.7491H169.182C168.645 35.7491 168.377 35.4811 168.377 34.9451V31.5247C168.377 31.0131 168.645 30.7549 169.182 30.7549H196.495ZM165.06 30.7549C165.596 30.7549 165.865 31.0131 165.865 31.5247V34.8379C165.865 35.3495 165.596 35.6078 165.06 35.6078H149.781C148.874 35.6078 148.118 35.6857 147.527 35.8368C146.932 35.9878 146.454 36.2461 146.093 36.6066C145.732 36.9672 145.483 37.4544 145.342 38.0732C145.201 38.692 145.132 39.4521 145.132 40.3584V40.7092H164.889C165.401 40.7092 165.66 40.9674 165.66 41.479V44.2368C165.66 44.7484 165.401 45.0066 164.889 45.0066H145.132V45.6011C145.132 46.5073 145.201 47.2723 145.342 47.8862C145.483 48.505 145.732 48.9922 146.093 49.3528C146.454 49.7134 146.932 49.9716 147.527 50.1226C148.123 50.2737 148.874 50.3516 149.781 50.3516H165.06C165.596 50.3516 165.865 50.6099 165.865 51.1215V54.4396C165.865 54.9512 165.596 55.2094 165.06 55.2094H149.674C147.903 55.2094 146.401 55.0486 145.161 54.7222C143.927 54.3957 142.917 53.8646 142.137 53.1338C141.356 52.398 140.786 51.4479 140.425 50.2688C140.064 49.0946 139.883 47.6669 139.883 45.9908V39.9734C139.883 38.2973 140.064 36.8795 140.425 35.715C140.786 34.5505 141.356 33.6004 142.137 32.8695C142.917 32.1338 143.927 31.6027 145.161 31.2616C146.396 30.9254 147.898 30.7549 149.674 30.7549H165.06ZM105.34 30.7549C105.853 30.7549 106.297 30.789 106.667 30.8621C107.038 30.9303 107.365 31.0667 107.648 31.2616C107.926 31.4614 108.18 31.7294 108.399 32.0656C108.619 32.4017 108.848 32.85 109.082 33.4103L116.356 50.1714C116.448 50.3809 116.614 50.4881 116.843 50.4881H117.263C117.497 50.4881 117.658 50.3857 117.751 50.1714L125.024 33.4103C125.258 32.85 125.483 32.4017 125.707 32.0656C125.927 31.7294 126.18 31.4614 126.458 31.2616C126.736 31.0618 127.058 30.9303 127.419 30.8621C127.78 30.7939 128.219 30.7549 128.732 30.7549H132.473C133.683 30.7549 134.503 31.0277 134.922 31.5734C135.342 32.1192 135.551 33.0595 135.551 34.3848V54.4298C135.551 54.9414 135.283 55.1997 134.746 55.1997H131.18C130.668 55.1997 130.41 54.9414 130.41 54.4298V36.2022C130.41 35.9683 130.317 35.8514 130.132 35.8514H129.819C129.585 35.8514 129.434 35.944 129.366 36.1291L122.297 51.7792C122.019 52.4078 121.731 52.9389 121.439 53.3676C121.146 53.7964 120.834 54.1521 120.497 54.4347C120.161 54.7124 119.775 54.9122 119.341 55.0291C118.912 55.1461 118.404 55.2045 117.819 55.2045H116.141C115.56 55.2045 115.053 55.1461 114.619 55.0291C114.19 54.9122 113.804 54.7124 113.463 54.4347C113.126 54.157 112.809 53.8013 112.521 53.3676C112.229 52.9389 111.946 52.4078 111.663 51.7792L104.599 36.134C104.531 35.9488 104.379 35.8563 104.145 35.8563H103.828C103.643 35.8563 103.55 35.9732 103.55 36.2071V54.4396C103.55 54.9512 103.292 55.2094 102.779 55.2094H99.2134C98.6768 55.2094 98.4085 54.9512 98.4085 54.4396V34.3848C98.4085 33.0595 98.6183 32.1192 99.0378 31.5734C99.4574 31.0277 100.287 30.7549 101.521 30.7549H105.34Z" fill="#010E35"/>
</svg>
