<svg width="414" height="100" viewBox="0 0 414 100" fill="none" xmlns="http://www.w3.org/2000/svg">
<path fill-rule="evenodd" clip-rule="evenodd" d="M137.991 25.9742C137.991 17.1547 130.82 10 121.981 10H112.01C103.171 10 96 17.1547 96 25.9742V74.0258C96 82.8453 103.171 90 112.01 90H121.981C130.82 90 137.991 82.8453 137.991 74.0258V67.0891H126.709C126.619 69.3385 126.43 71.2709 126.192 72.6483C125.854 76.2653 122.805 79.0896 119.091 79.0896H114.91C110.967 79.0896 107.779 75.8987 107.779 71.9745V28.0255C107.779 24.0914 110.977 20.9104 114.91 20.9104H119.091C121.971 20.9104 124.454 22.6248 125.576 25.0824C126.123 25.8157 126.56 28.8579 126.709 32.8218H137.991V25.9841V25.9742ZM159.9 10.1388H170.666V10.1289C179.505 10.1289 186.676 17.2836 186.676 26.1031V74.0258C186.676 82.8454 179.505 90.0001 170.666 90.0001H159.9C151.061 90.0001 143.89 82.8454 143.89 74.0258V26.113C143.89 17.2935 151.061 10.1388 159.9 10.1388ZM167.776 79.0896C171.709 79.0896 174.907 75.9087 174.907 71.9746V28.1544C174.907 24.2302 171.719 21.0393 167.776 21.0393H162.8C158.867 21.0393 155.669 24.2203 155.669 28.1544V71.9746C155.669 75.8988 158.857 79.0896 162.8 79.0896H167.776ZM286.31 89.2468V10.7432H298.972V78.0589H320.127V89.2468H286.31ZM400.076 89.2467L390.8 61.1531L381.524 89.2467H367.61L383.56 48.7562L368.861 11.1196H382.775L390.81 37.2413L398.844 11.1196H412.759L397.712 48.7562L414 89.2467H400.086H400.076ZM352.951 10.8428V71.9749C352.951 75.909 349.753 79.09 345.82 79.09H341.718C337.775 79.09 334.587 75.8991 334.587 71.9749V10.8428H322.818V74.0163C322.818 82.8358 329.989 89.9905 338.828 89.9905H348.72C357.559 89.9905 364.73 82.8358 364.73 74.0163V10.8428H352.961H352.951ZM206.777 28.2734V89.1975H206.767H194.998V26.232C194.998 17.4125 202.169 10.2578 211.008 10.2578H220.9C229.739 10.2578 236.909 17.4125 236.909 26.232V89.1876H225.14V28.2734C225.14 24.3492 221.952 21.1583 218.01 21.1583H213.908C209.975 21.1583 206.777 24.3393 206.777 28.2734ZM254.578 10.7432H279.605V21.9311H264.152C259.663 21.9311 258.501 23.249 258.501 27.5696L258.451 27.5201V43.9402H276.656V55.1281H258.451V89.2567H245.788V19.0474C246.036 14.4196 249.88 10.7432 254.578 10.7432Z" fill="#1A1A1A"/>
<path d="M59.9141 60.0326L39.8989 79.9862L29.9469 70.0648L49.962 50.1111L39.9797 40.1494L9.87109 70.1756L39.7877 100L69.8963 69.9842L59.9141 60.0326Z" fill="#1A1A1A"/>
<path d="M80 39.7462L40.1314 0L0 40.0181L0.13132 59.8409L39.9495 20.135L79.9293 59.992L80 39.7462Z" fill="#38A1DB"/>
</svg>
