<svg width="1272" height="453" viewBox="0 0 1272 453" fill="none" xmlns="http://www.w3.org/2000/svg">
<path d="M783.339 266.047C783.339 239.216 799.052 217.028 828.164 217.028C852.271 217.838 871.805 239.81 871.805 266.047V434.754C871.805 438.964 875.195 442.366 879.393 442.366H955.536C959.734 442.366 963.124 438.964 963.124 434.754V247.368C963.124 179.076 922.98 134.699 858.944 134.699C814.711 134.699 785.599 153.972 766.98 174.919C766.657 175.297 766.173 175.243 765.85 174.865C748.953 152.244 722.155 134.699 683.733 134.699C648.809 134.699 619.159 149.275 604.522 170.762C604.038 170.6 604.522 170.762 603.984 170.6V149.383C603.984 145.172 600.594 141.771 596.396 141.771H520.791C516.593 141.771 513.203 145.226 513.203 149.383V434.808C513.203 439.018 516.593 442.42 520.791 442.42H596.396C600.594 442.42 603.984 439.018 603.984 434.808V266.101C603.984 239.27 619.697 217.082 648.217 217.082C672.648 217.892 692.45 239.864 692.45 266.101V434.808C692.45 439.018 695.841 442.42 700.038 442.42H775.644C779.841 442.42 783.231 439.018 783.231 434.808V266.101L783.339 266.047ZM1183.59 434.7C1183.59 438.911 1186.98 442.312 1191.18 442.312H1263.88C1268.08 442.312 1271.47 438.911 1271.47 434.7V256.114C1271.47 179.076 1221.42 134.699 1135.86 134.699C1104.65 134.429 1061.81 143.499 1037.01 155.376C1034.42 156.617 1032.81 159.317 1032.81 162.178V223.722C1032.81 229.391 1038.73 233.008 1043.79 230.524C1065.2 219.997 1089.69 212.385 1115.41 212.385C1153.03 211.629 1183.48 232.846 1183.48 259.677V261.836C1183.48 266.047 1178.91 268.8 1175.3 266.641C1161.26 258.273 1138.23 250.931 1113.64 250.931C1050.19 250.931 997.832 289.477 997.832 347.836C997.832 410.892 1050.19 449.438 1110.73 449.438C1145.65 449.438 1172.99 435.401 1183.48 423.74V434.808L1183.59 434.7ZM1184.77 347.782C1184.77 371.698 1158.57 384.547 1133.55 384.547C1108.52 384.547 1081.78 371.698 1081.78 347.782C1081.78 323.866 1107.39 311.611 1133.55 311.611C1159.7 311.611 1184.77 324.46 1184.77 347.782Z" fill="black"/>
<path d="M368.45 442.365H444.055C448.253 442.365 451.643 438.964 451.643 434.753V149.275C451.643 145.064 448.253 141.663 444.055 141.663H368.45C364.252 141.663 360.862 145.064 360.862 149.275V434.699C360.862 438.91 364.252 442.312 368.45 442.312" fill="black"/>
<path d="M406.871 0.327637H405.634C374.638 0.327637 349.992 24.4594 349.992 56.1492C349.992 87.8391 374.638 111.377 405.634 111.377H406.871C437.221 111.377 462.513 87.2452 462.513 56.1492C462.513 25.0533 437.221 0.327637 406.871 0.327637Z" fill="black"/>
<path d="M284.772 357.068C274.817 347.35 262.117 342.114 249.256 341.412C199.857 339.792 192.754 298.655 192.754 288.29C192.754 276.953 200.61 237.273 249.149 235.707C262.01 234.951 274.709 229.769 284.664 219.997C306.62 198.565 307.05 163.312 285.687 141.286C274.871 130.11 260.503 124.496 246.135 124.442H245.759C231.875 124.442 217.938 129.733 207.229 140.206C195.444 151.705 190.494 167.145 190.494 182.423C190.494 195.811 181.669 232.522 140.61 232.522C125.166 232.522 108.969 237.057 97.1303 249.204C96.5922 249.744 96.2155 250.337 95.7312 250.877V250.661C92.933 253.631 92.3411 251.255 92.3949 249.69V25.7014C92.3949 21.4905 89.0047 18.0894 84.8074 18.0894H7.58747C3.39014 18.0894 0 21.4905 0 25.7014V436.643C0 440.854 3.39014 444.255 7.58747 444.255H84.915C89.1124 444.255 92.5025 440.854 92.5025 436.643V327.322C92.5025 325.702 93.0406 323.381 95.8926 326.35V326.188C96.3231 326.728 96.6998 327.268 97.1841 327.807C109.023 340.008 125.005 344.489 140.718 344.489C181.776 344.489 190.601 385.95 190.601 394.588C190.601 406.465 195.552 425.306 207.337 436.805C218.099 447.333 232.09 452.569 246.028 452.569C260.449 452.569 274.871 446.955 285.741 435.726C296.18 424.928 301.454 411 301.454 397.072V396.748C301.454 382.333 295.804 367.919 284.664 357.014" fill="black"/>
</svg>
